<svg xmlns="http://www.w3.org/2000/svg" viewBox="0 0 299.86796 531.26395" height="149.93449mm" width="84.629402mm"><g transform="translate(11.114 -283.946)"><path d="M87.867202 343.54699l-.93577 48.03593-43.35712 1.55962s-14.34838.93577-14.97223 15.28415c-.62384 14.3484 2.49539 212.73057 2.49539 212.73057s1.87152 17.46762 12.47686 16.84377c10.60534-.62385 185.905288-.62385 185.905288-.62385s16.84377 1.2477 16.84377-16.84376c0-18.09146-2.49537-213.3544-2.49537-213.3544s4.67884-14.03648-25.26566-13.41263c-29.94447.62382-31.19216-.31192-31.19216-.31192s-4.67881 1.24767-4.67881-13.72456c0-14.97224-.62385-34.31138-.62385-34.31138z" fill="#d23a00" fill-rule="evenodd" stroke="#414141" stroke-width="2.13910007"/><path d="M117.18782 344.17088l-.93577 295.54575-70.806198.31193s-17.15569 0-17.31165-23.23816c-.15594-23.23818 0-209.76732 0-209.76732s4.99073-13.56859 18.87124-13.56859c13.88052 0 36.18293.31192 36.18293.31192s4.67883.77981 4.67883-4.83477c0-5.61461-.46789-43.82501-.46789-43.82501z" fill="#b73a00" fill-rule="evenodd"/><rect rx="18.86017" y="286.69943" x="68.899033" height="57.854893" width="134.24203" fill="none" stroke="#414141" stroke-width="5.50685167" stroke-dashoffset="40.96819687"/><g transform="translate(-629.553 -216.946) scale(2.1391)"><path d="M335.1306 240.79544v15.54272" fill="none" stroke="#414141" stroke-width="2.57437778"/><ellipse cx="335.12241" cy="240.84421" rx="1.2919613" ry=".97165215" fill="#414141"/><ellipse cx="335.13293" cy="256.36633" rx="1.2814366" ry=".92955315" fill="#414141"/></g><path d="M87.418612 344.22042l.11679 46.27757s-.63916 2.62485-3.98418 2.58515c-3.34502-.0398-38.35742 0-38.35742 0s-16.99505 1.40237-16.99505 18.41949v209.65314s1.10966 18.64583 18.80552 18.64583H226.23102s18.10102-2.02199 18.17276-18.02804l.93445-208.47374s1.82431-18.58003-15.79554-18.77743l-31.79927-.35622s-5.78772.0663-9.5584.0642c-1.88159-.001-5.20353.0398-5.17499-4.90622.0516-5.4389.302-44.18765.302-44.18765z" fill="none" stroke="#414141" stroke-width="5.50685167"/><path d="M37.751382 476.44425l-6.81618-.0513.0379 73.52739 55.89351-.15594s12.42945 22.83372 49.042718 22.83372c36.61329 0 50.72925-22.49732 50.72925-22.49732l55.47132-.11017.59706-73.65105-57.61234-.25612s-4.85571-25.17847-49.18531-25.67654c-39.260018-.44112-50.288128 25.80574-50.288128 25.80574z" fill="#fece2f" fill-opacity=".94117647" fill-rule="evenodd"/><path d="M116.8759 453.34345v119.7779s-28.822148-18.72649-31.504088-20.2749c-2.68192-1.54841-46.47631-.31192-46.47631-.31192l-2.49539-2.57336-5.45862-.11701.15594-73.41856 54.27436-.62385s24.953728-18.40336 31.504088-22.45834z" fill="#fbb62c" fill-rule="evenodd"/><g transform="matrix(1.6069 0 0 1.54057 -267.69 -152.26)" stroke="#414141"><path d="M219.42717 456.61864a41.037647 41.037647 0 0 0 31.91535 15.24039 41.037647 41.037647 0 0 0 31.92349-15.25045" fill="none" stroke-width="3.5" stroke-dashoffset="40.96819687"/><path d="M220.77419 457.18725h-30.9329M312.83091 457.25786h-30.9329" fill="none" stroke-width="3.5"/><ellipse cx="190.2733" cy="-457.18555" rx="1.6404648" ry="1.8045112" transform="scale(1 -1)" fill="#414141" stroke="none"/><ellipse cx="312.83456" cy="-457.25613" rx="1.2913965" ry="1.7500513" transform="scale(1 -1)" fill="#414141" stroke="none"/></g><g transform="matrix(1.6069 0 0 -1.54057 -267.69 1178.16)" stroke="#414141"><path d="M219.42717 456.61864a41.037647 41.037647 0 0 0 31.91535 15.24039 41.037647 41.037647 0 0 0 31.92349-15.25045" fill="none" stroke-width="3.5" stroke-dashoffset="40.96819687"/><path d="M220.77419 457.18725h-30.9329M312.83091 457.25786h-30.9329" fill="none" stroke-width="3.5"/><ellipse cx="190.2733" cy="-457.18555" rx="1.6404648" ry="1.8045112" transform="scale(1 -1)" fill="#414141" stroke="none"/><ellipse cx="312.83456" cy="-457.25613" rx="1.2913965" ry="1.7500513" transform="scale(1 -1)" fill="#414141" stroke="none"/></g><path d="M154.0978491 491.67442333c-1.04461216 0-2.02040656.4528018-2.92756343 1.3576464-.90715687.9048446-1.3611158 1.86461906-1.3611158 2.87913362 0 1.26129943.4248418 2.30233013 1.27701855 3.12491976.87967182.79516466 1.9932119 1.19378565 3.34019966 1.19378565 1.3469978 0 2.43338323-.38312078 3.25806492-1.15087044.8246817-.79516464 1.23790867-1.83815284 1.23790867-3.12686727 0-1.3435644-.45395892-2.3710424-1.3611158-3.08395207-.90715686-.71290968-1.979965-1.11154067-3.21699253-1.19379563h-.24640423zm10.1437961.7412435c-.98962204 0-1.85679792.2457462-2.59902446.73929598-.74221653.4935498-1.11273905 1.18049263-1.11273905 2.05791225v3.94808865c0 8.50004622.110581 17.65849172.33049146 27.47467735.02753512.82258963.38444027 1.43791392 1.0716867 1.84920873.6872364.41128483 1.5388825.61835043 2.55598957.61835043 1.09959228 0 1.95122835-.234151 2.55598958-.7002858.63226633-.49354978.94847958-1.01406512.94847958-1.56245488v-31.62758447c0-.87741962-.3705225-1.56436245-1.11274905-2.05791224-.74221653-.49354977-1.62100723-.73929597-2.63812433-.73929597zm9.64902513 0c-.98962204 0-1.85679792.2457462-2.59902446.73929598-.74221653.4935498-1.11274906 1.18049263-1.11274906 2.05791225v3.94808865c0 8.50004622.11059104 17.65849172.3305015 27.47467735.0275351.82258963.38444025 1.43791392 1.07168668 1.84920873.6872364.41128483 1.5388825.61835043 2.55598958.61835043 1.09959228 0 1.95121833-.234151 2.55598958-.7002858.6322663-.49354978.94847957-1.01406512.94847957-1.56245488v-31.62758447c0-.87741962-.37053252-1.56436245-1.11274905-2.05791224-.74221652-.49354977-1.62100722-.73929597-2.63812432-.73929597zm-85.97488133 1.3986041c-1.67686846 0-2.74966657.12189436-3.21699254.36866925-.46732596.2193599-.83784848.8366317-1.11274905 1.85115624-.35735572 1.28871443-1.52521506 4.7582142-3.50446914 10.4066317-1.97924408 5.62100248-3.2305198 9.23947203-3.75282588 10.8572263-.1374553.35646483-.38381947.53447752-.7411852.53447752-.27490058 0-.4824853-.15093726-.6199306-.45254214-1.73183855-4.441978-3.82118303-11.2687009-6.26775308-20.4816668-.21993047-1.28871442-.6176076-2.0975516-1.1948838-2.42658147-.57727618-.35645483-1.485184-.53447752-2.72222157-.53447752h-.70011283c-1.09958227 0-1.99391278.1915654-2.6811592.57543524-.68723642.35645484-1.0306043.83634206-1.0306043 1.4395718 0 .10966996.0271346.27414993.0821047.49350983 1.6493734 4.7435729 3.09270403 9.04898527 4.3297416 12.91514854 1.2645226 3.8387283 2.37806267 7.40302702 3.34018964 10.69337554.962137 3.26292355 1.48593497 5.0179825 1.56841015 5.2647574.74221652 2.35807894 1.35911323 3.78418793 1.85392425 4.2777477.52230608.52096477 1.4981105.7802537 2.92756344.7802537h1.0325668c.79719663 0 1.44124797-.0134828 1.936059-.04094773.49482102 0 .94877994-.08129618 1.36111578-.24577615.41234586-.13710493.70140448-.2473941.86633482-.32965906.1924254-.05483.3844803-.2734908.5769057-.65736062.21989043-.35645484.3576361-.63123397.41263623-.8231689.08250522-.2193599.22021083-.658619.41263622-1.3166787.1924354-.6854947.3573357-1.23309546.49477097-1.64439027.6322663-1.97419912 1.5809061-4.92122604 2.8454287-8.8422193 1.29201767-3.92099324 2.43271236-7.44466384 3.4223344-10.57049244.98963205-3.1532436 1.85484543-6.0460897 2.59706196-8.67836852.16494034-.54838975.24836674-1.0147243.24836674-1.3986041 0-1.3435544-.92149516-2.01500703-2.76329395-2.01500703zm49.72943854 8.38967716c-.32988068 0-.77025228.02706543-1.3200434.0818954-1.7868287.2467749-3.2844686.71311943-4.4940111 1.39860413-1.18205744.6580697-1.8416486 1.22117067-1.97909388 1.68730546-.02743498-.10967996-.0701895-.27414994-.1251596-.49350984-.0549701-.24678488-.09572208-.41321237-.12319712-.49546734-.08250522-.9322596-1.12616617-1.3966466-3.1329053-1.3966466-1.5944033 0-2.61288214.19156538-3.05272305.57543522-.6872164.49354978-1.05773892 1.5616659-1.11274907 3.20684515-.08250522 1.5354893-.1231971 3.04481204-.1231971 4.5254614 0 .52097475.01361735 1.31626923.04105234 2.38563375.02753512 1.04193954.04105235 1.82369132.04105235 2.3446561 0 .54839974-.01361736 1.37077963-.04105235 2.46755914v2.46754916c0 1.3435544.01351724 2.3574997.04105235 3.0429844.08250522 2.11130405.32883936 3.4832422.7411752 4.11389692.41234586.60321974 1.39010276.90313678 2.92951593.90313678 1.31950273 0 2.27976732-.14897977 2.88453857-.45059464.60477125-.32902986.9074072-1.0159727.9074072-2.05792222 0-.6854847-.01361737-1.7265154-.04105236-3.12490977v-3.12686728c0-.98709957.0271346-2.4944748.0821047-4.52352388.08250522-2.76937376 1.18242792-4.9211062 3.2991273-6.4565955.79719663-.57581475 1.66437252-.8641366 2.59901444-.8641366 1.0171171 0 1.90949512.34250266 2.6792067 1.02798736.79717663.6580697 1.2239709 1.52107773 1.27897105 2.59044225.0549701 1.1241945.09572207 3.26434173.12320712 6.41758533.027435 3.1258286.12448876 5.89483284.2894291 8.30775177.0549701.60322973.26061235 1.11020237.6179781 1.5214972.4398309.49354977 1.140144.739286 2.102291.739286.21991043 0 .5361237-.01358267.94846954-.04094773.41233585-.02746493.72855912-.0409477.94847958-.0409477h.2894291c1.56690823 0 2.35065773-.84946532 2.35065773-2.54947457 0-.9048446.01351725-2.26129253.04105236-4.07098173.0549701-1.8096892.0821047-3.18161736.0821047-4.11388694 0-3.20808357-.20562222-5.82615054-.61796807-7.85519963-.41234586-2.0290391-1.27952175-3.81119345-2.59902447-5.34669276-1.53941317-1.86452916-3.72379886-2.7972082-6.5552297-2.7972082zm-32.90524312.0409477c-.79720665 0-1.6216881.13738457-2.47386485.41158445-3.3537269 1.15161948-6.03475595 2.90667843-8.0415051 5.26475738-2.00673914 2.33066396-3.00969818 5.00291174-3.00969818 8.0190604 0 2.11130405.50826817 4.2378986 1.52538527 6.37661764 1.8417988 3.92099325 4.78277934 6.25074837 8.82375268 6.99107304 1.09958226.1919449 2.03465474.28870136 2.8043563.28870136 2.85892592 0 5.26447365-.91913634 7.21623267-2.75625052l.86634483-.6164029c.0549701.57580474.24703503 1.1234155.5769057 1.64439026.35736575.49354978.79774735.82249974 1.32004342.98701966.46732597.16451993 1.00274878.24773367 1.60752003.24773367.494811 0 .9351826-.08319377 1.3200434-.24773367 1.75933364-.85000462 2.63812434-2.96109894 2.63812434-6.33371242 0-.84999464-.06788658-2.0284199-.20534187-3.53649423-.10996023-1.5354993-.16622198-2.5513921-.16622198-3.04494187v-9.5815153c0-1.15161947-.37053254-2.0572131-1.11274907-2.71528282-.74221652-.6580697-1.60743992-.98701965-2.59706196-.98701965-.87967182 0-1.64983398.27476914-2.30958535.82316888-.65972132.54838976-1.01667653 1.34367426-1.07167667 2.38562378-.08250522-.0822949-.24737547-.23319222-.49477097-.45255212-.21992046-.2467749-.38481074-.41124488-.49477097-.49350983-2.4740651-1.78226422-4.71472254-2.67431515-6.72146168-2.67431515zm87.74666083 0c-.79719665 0-1.62167808.13738457-2.47385484.41158445-3.35373692 1.15161948-6.03476596 2.90667843-8.0415051 5.26475738-2.00674914 2.33066396-3.00969818 5.00291174-3.00969818 8.0190604 0 2.11130405.50826818 4.2378986 1.5253853 6.37661764 1.84179878 3.92099325 4.78277933 6.25074837 8.82375267 6.99107304 1.09958225.1919449 2.0346447.28870136 2.8043563.28870136 2.8589159 0 5.26447364-.91913634 7.21623266-2.75625052l.8663348-.6164029c.0549701.57580474.24703505 1.1234155.57690572 1.64439026.35736574.49354978.79773733.82249974 1.32004342.98701966.46732596.16451993 1.00274877.24773367 1.60752002.24773367.49481102 0 .93519263-.08319377 1.32004342-.24773367 1.75934364-.85000462 2.63813433-2.96109894 2.63813433-6.33371242 0-.84999464-.06788657-2.0284199-.20534186-3.53649423-.10996022-1.5354993-.16623198-2.5513921-.16623198-3.04494187v-9.5815153c0-1.15161947-.37053253-2.0572131-1.11273905-2.71528282-.74222654-.6580697-1.60743992-.98701965-2.59706196-.98701965-.8796718 0-1.649844.27476914-2.30958534.82316888-.65973133.54838976-1.01667654 1.34367426-1.0716867 2.38562378-.0825052-.0822949-.24735543-.23319222-.49477096-.45255212-.21991044-.2467749-.38481073-.41124488-.49477096-.49350983-2.4740651-1.78226422-4.71472256-2.67431515-6.7214617-2.67431515zm-38.1423919.28869137c-.98962205 0-1.84125812.36958807-2.5559896 1.10991274-.68724642.74032468-1.0306143 1.65946103-1.0306143 2.75624054v12.5445318c.0275351 1.2887244.04105235 2.26203158.04105235 2.92010128 0 .4661348-.01361737 1.15112013-.04105236 2.05596473v2.0559747c0 2.0016241 1.01653636 3.0020267 3.05077056 3.0020267h.04105236c1.73184858-.02746494 2.8996979-.2460758 3.50446915-.6573706.60477126-.4387098.9074072-1.28817512.9074072-2.54947456v-9.74732357c0-4.41454303-.0271346-7.71956283-.0821047-9.91312185-.0549701-.93226958-.4662446-1.75464948-1.2359562-2.46754917-.7422165-.74032466-1.6093824-1.10991273-2.59901444-1.10991273zm-48.65579937 6.21081935c1.8417988 0 3.4228751.6153243 4.74237782 1.84919874 1.34698777 1.23388445 2.02015625 2.96185798 2.02015625 5.182842 0 2.13872903-.6188492 3.9208734-1.85588676 5.34668276-1.2095425 1.42581936-2.94193178 2.13984762-5.19607642 2.13984762-2.0342342 0-3.64245512-.6308145-4.82451257-1.89211395-1.15456237-1.28871444-1.73072713-3.05732608-1.73072713-5.30572508 0-2.30324897.67316847-4.09893604 2.02015624-5.38765047 1.3469878-1.2887244 2.95521872-1.93308163 4.82451258-1.93308163zm87.74667084 0c1.8417988 0 3.42286508.6153243 4.74237782 1.84919874 1.34698777 1.23388445 2.02014623 2.96185798 2.02014623 5.182842 0 2.13872903-.6188492 3.9208734-1.85587675 5.34668276-1.2095425 1.42581936-2.94193176 2.13984762-5.19608642 2.13984762-2.0342242 0-3.64245512-.6308145-4.82451256-1.89211395-1.15456238-1.28871444-1.73071714-3.05732608-1.73071714-5.30572508 0-2.30324897.67315846-4.09893604 2.02015625-5.38765047 1.34698778-1.2887244 2.9552187-1.93308163 4.82451257-1.93308163z" style="-inkscape-font-specification:'Vanilla Extract Medium'" font-weight="500" font-family="Vanilla Extract" font-size="42.17018509" letter-spacing="0" word-spacing="0" fill="#414141"/><path d="M287.61393 794.009376v3.30546q-1.48176-.75987-3.0775-1.13981-1.59574-.37994-3.30546-.37994-2.60258 0-3.91337.79787-1.29179.79787-1.29179 2.39361 0 1.21581.93085 1.91869.93085.68389 3.74239 1.31079l1.19681.26596q3.7234.79787 5.28114 2.26063 1.57675 1.44376 1.57675 4.04634 0 2.96352-2.35562 4.69224-2.33662 1.72872-6.43996 1.72872-1.70972 0-3.57142-.34194-1.8427-.32295-3.89436-.98784v-3.60942q1.93768 1.00684 3.81838 1.51976 1.88069.49392 3.72339.49392 2.4696 0 3.79939-.83587 1.32978-.85486 1.32978-2.39361 0-1.42477-.96884-2.18465-.94985-.75987-4.19832-1.46276l-1.2158-.28495q-3.24848-.68389-4.69224-2.08966-1.44377-1.42477-1.44377-3.89437 0-3.00152 2.12766-4.63525 2.12765-1.63374 6.04102-1.63374 1.93768 0 3.6474.28496 1.70973.28495 3.15349.85486zm-20.57365 7.80773v12.84192h-3.49543v-12.72793q0-3.02052-1.17781-4.52127-1.17781-1.50076-3.53343-1.50076-2.83054 0-4.46427 1.80471-1.63374 1.80471-1.63374 4.9202v12.02505h-3.51443v-21.27655h3.51443v3.30547q1.2538-1.91869 2.94452-2.86854 1.70973-.94985 3.93237-.94985 3.6664 0 5.5471 2.27964 1.88069 2.26063 1.88069 6.66791zm-33.22562-5.98403q-2.81154 0-4.44528 2.20365-1.63373 2.18464-1.63373 6.00302 0 3.81838 1.61474 6.02203 1.63373 2.18464 4.46427 2.18464 2.79255 0 4.42628-2.20364 1.63374-2.20364 1.63374-6.00303 0-3.78038-1.63374-5.98403-1.63373-2.22264-4.42628-2.22264zm0-2.96352q4.55926 0 7.16184 2.96352 2.60258 2.96352 2.60258 8.20667 0 5.22416-2.60258 8.20667-2.60258 2.96352-7.16184 2.96352-4.57825 0-7.18083-2.96352-2.58358-2.98251-2.58358-8.20667 0-5.24315 2.58358-8.20667 2.60258-2.96352 7.18083-2.96352zm-29.59719 4.59726q1.31078-2.35562 3.13449-3.47644 1.8237-1.12082 4.2933-1.12082 3.32446 0 5.12917 2.33663 1.80471 2.31762 1.80471 6.61092v12.84192h-3.51443v-12.72793q0-3.05851-1.08283-4.54027-1.08282-1.48176-3.30546-1.48176-2.71656 0-4.29331 1.80471-1.57674 1.80471-1.57674 4.9202v12.02505h-3.51443v-12.72793q0-3.07751-1.08282-4.54027-1.08283-1.48176-3.34346-1.48176-2.67857 0-4.25531 1.82371-1.57675 1.8047-1.57675 4.9012v12.02505h-3.51443v-21.27655h3.51443v3.30547q1.19681-1.95669 2.86854-2.88754t3.97036-.93085q2.31762 0 3.93236 1.17781 1.63373 1.17781 2.41261 3.41945zm-37.91785 0q1.31078-2.35562 3.13449-3.47644 1.8237-1.12082 4.2933-1.12082 3.32446 0 5.12917 2.33663 1.80471 2.31762 1.80471 6.61092v12.84192h-3.51443v-12.72793q0-3.05851-1.08283-4.54027-1.08282-1.48176-3.30546-1.48176-2.71656 0-4.29331 1.80471-1.57674 1.80471-1.57674 4.9202v12.02505h-3.51443v-12.72793q0-3.07751-1.08282-4.54027-1.08283-1.48176-3.34346-1.48176-2.67857 0-4.25531 1.82371-1.57675 1.8047-1.57675 4.9012v12.02505h-3.51443v-21.27655h3.51443v3.30547q1.19681-1.95669 2.86854-2.88754t3.97035-.93085q2.31763 0 3.93237 1.17781 1.63373 1.17781 2.41261 3.41945zm-32.1048-1.63374q-2.81154 0-4.44528 2.20365-1.63373 2.18464-1.63373 6.00302 0 3.81838 1.61474 6.02203 1.63373 2.18464 4.46427 2.18464 2.79255 0 4.42629-2.20364 1.63373-2.20364 1.63373-6.00303 0-3.78038-1.63373-5.98403-1.63374-2.22264-4.42629-2.22264zm0-2.96352q4.55926 0 7.16184 2.96352 2.60258 2.96352 2.60258 8.20667 0 5.22416-2.60258 8.20667-2.60258 2.96352-7.16184 2.96352-4.57825 0-7.18083-2.96352-2.58358-2.98251-2.58358-8.20667 0-5.24315 2.58358-8.20667 2.60258-2.96352 7.18083-2.96352zm-14.05772-4.38828v4.04634q-1.93768-1.80471-4.14132-2.69756-2.18465-.89286-4.65425-.89286-4.86321 0-7.44679 2.98252-2.58358 2.96352-2.58358 8.58661 0 5.60409 2.58358 8.5866 2.58358 2.96352 7.44679 2.96352 2.4696 0 4.65425-.89285 2.20364-.89286 4.14132-2.69756v4.00834q-2.01367 1.36778-4.2743 2.05167-2.24164.68389-4.74923.68389-6.43996 0-10.14436-3.93236-3.7044-3.95136-3.7044-10.77125 0-6.83889 3.7044-10.77126 3.7044-3.95136 10.14436-3.95136 2.54559 0 4.78722.68389 2.26064.6649 4.23631 2.01368zm124.5215-41.27424q0 6.8518 3.50947 10.77906 3.59302 3.8437 9.77635 3.8437 6.85181 0 10.52839-4.34504 3.76013-4.34505 3.76013-10.86263 0-6.76824-4.09436-10.52837-4.01081-3.76016-9.60925-3.76016-5.68198 0-9.77635 3.92726-4.09438 3.92726-4.09438 10.94618zm41.94642-.25068q0 1.50407.33424 6.18335.41779 4.59571.41779 7.18603 0 10.27771-5.34776 12.86803-1.1698.50134-2.67387.50134-1.83828 0-3.25879-.50134-1.5876-.50136-2.67388-2.0054-1.0027-1.58762-1.16981-3.34235l-1.75472 1.25337q-5.93267 5.59843-14.62276 5.59843-2.33964 0-5.68199-.58492-12.28311-2.25606-17.88155-14.20495-3.09166-6.51758-3.09166-12.95159 0-9.19143 6.09977-16.29393 6.0998-7.18603 16.29394-10.6955 2.59032-.83557 5.01351-.83557 6.09977 0 13.62006 5.4313.33423.25068 1.0027 1.0027.75202.66847 1.0027.91915.16707-3.17524 2.17252-4.84641 2.0054-1.67117 4.67928-1.67117 3.00811 0 5.2642 2.00541 2.25608 2.0054 2.25608 5.51488v19.46914zm-60.07863-42.11353v64.25656q0 1.67117-1.92186 3.17523-1.83828 1.42049-5.18062 1.42049-3.09166 0-5.18064-1.25338-2.08896-1.25336-2.17252-3.76013-.66846-29.91397-.66846-55.81714v-8.02163q0-2.67388 2.25608-4.17792 2.25607-1.50406 5.26418-1.50406 3.09168 0 5.34775 1.50406 2.25609 1.50404 2.25609 4.17792zm-19.55271 0v64.25656q0 1.67117-1.92185 3.17523-1.8383 1.42049-5.18064 1.42049-3.09166 0-5.18062-1.25338-2.08896-1.25336-2.17254-3.76013-.66847-29.91397-.66847-55.81714v-8.02163q0-2.67388 2.25609-4.17792 2.25609-1.50406 5.2642-1.50406 3.09166 0 5.34775 1.50406 2.25608 1.50404 2.25608 4.17792zm-34.9275 42.19709v-19.46915q0-3.34235 2.08896-5.59843 2.17253-2.25607 5.18064-2.25607 3.00811 0 5.2642 2.25607 2.33964 2.17253 2.50675 5.01351.16706 6.68469.16706 20.13764v19.80338q0 3.84369-1.8383 5.18063-1.83828 1.25338-7.10247 1.33693h-.0836q-6.18335 0-6.18335-6.09977v-4.17792q.0836-2.75745.0836-4.17794 0-2.00541-.0836-5.93266v-6.01622zm14.03784-34.34257q-2.50674 2.33964-6.60113 2.33964-4.09437 0-6.76824-2.42322-2.59032-2.50674-2.59032-6.35045 0-3.09166 2.75745-5.84909 2.75743-2.75743 5.93264-2.75743h.50136q3.76014.25066 6.51756 2.4232 2.75745 2.17251 2.75745 6.2669 0 3.92723-2.50677 6.35045zm-71.77684 34.42614q0-1.58762-.0836-4.76285-.0836-3.25877-.0836-4.84639 0-4.51218.25068-9.19146.16706-5.01352 2.25606-6.51756 1.33694-1.16983 6.18335-1.16983 6.09977 0 6.35045 2.841.0836.25068.25069 1.00271.16706.66846.25065 1.0027.41781-1.42049 4.01082-3.4259 3.67658-2.08898 9.1079-2.841 1.67117-.16706 2.67388-.16706 8.60652 0 13.2858 5.68198 4.01081 4.67928 5.26419 10.86261 1.25339 6.18334 1.25339 15.95969 0 2.84099-.16707 8.35586-.0836 5.51486-.0836 8.27231 0 5.18062-4.76284 5.18062h-.58491q-.66847 0-1.92186.0836-1.25336.0836-1.92183.0836-2.92456 0-4.26149-1.50406-1.08626-1.25339-1.25339-3.09167-.50134-7.35315-.58491-16.87885-.0836-9.60922-.25066-13.03514-.16707-3.25877-2.59032-5.26417-2.33965-2.08898-5.43131-2.08898-2.841 0-5.2642 1.75474-6.434 4.67929-6.68468 13.1187-.16707 6.18332-.16707 9.19143v6.35046q.0836 4.26149.0836 6.35045 0 3.17524-1.8383 4.17794-1.83828.91915-5.84909.91915-4.67928 0-5.93266-1.8383-1.25339-1.92185-1.50407-8.35586-.0836-2.08896-.0836-6.18332v-5.01352q.0836-3.34234.0836-5.01352zm-47.46128.0836q0 6.8518 3.50947 10.77906 3.59303 3.8437 9.77635 3.8437 6.85182 0 10.5284-4.34504 3.76013-4.34505 3.76013-10.86263 0-6.76824-4.09437-10.52837-4.01081-3.76016-9.60924-3.76016-5.68199 0-9.77635 3.92726-4.09439 3.92726-4.09439 10.94618zm41.94643-.25068q0 1.50407.33423 6.18335.41779 4.59571.41779 7.18603 0 10.27771-5.34775 12.86803-1.16981.50134-2.67388.50134-1.83827 0-3.25879-.50134-1.58759-.50136-2.67387-2.0054-1.00271-1.58762-1.16981-3.34235l-1.75473 1.25337q-5.93266 5.59843-14.62276 5.59843-2.33964 0-5.68198-.58492-12.28312-2.25606-17.88155-14.20495-3.09166-6.51758-3.09166-12.95159 0-9.19143 6.09977-16.29393 6.09979-7.18603 16.29393-10.6955 2.59032-.83557 5.01352-.83557 6.09977 0 13.62005 5.4313.33424.25068 1.00271 1.0027.75202.66847 1.0027.91915.16706-3.17524 2.17251-4.84641 2.00541-1.67117 4.67928-1.67117 3.00811 0 5.2642 2.00541 2.25609 2.0054 2.25609 5.51488v19.46914zm-112.38631-44.70385h1.42049q3.76013 0 5.51486 1.08628 1.75474 1.0027 2.42321 4.92994 7.43671 28.07569 12.70091 41.61219.41779.91915 1.25336.91915 1.08628 0 1.50407-1.08628 1.58762-4.92994 7.60383-22.05947 6.01622-17.21306 7.10248-21.14032.83558-3.09166 2.25609-3.76013 1.42049-.75202 6.51756-.75202 5.59843 0 5.59843 4.09436 0 1.16981-.50136 2.84099-2.25607 8.02162-5.26418 17.63087-3.00811 9.52569-6.93537 21.47455-3.8437 11.94888-5.76554 17.9651-.4178 1.25339-1.0027 3.34235-.58491 2.0054-.8356 2.67387-.16706.58492-.83557 1.67117-.58492 1.16984-1.16983 1.33694-.50134.25068-1.75473.66847-1.25338.50136-2.75743.50136-1.50406.0836-3.92726.0836h-2.08895q-4.34505 0-5.93267-1.58762-1.50407-1.50404-3.76013-8.69009-.25068-.75202-3.17524-10.6955-2.92456-10.02703-6.76824-21.72524-3.76013-11.78175-8.77365-26.23739-.16706-.66846-.16706-1.0027 0-1.8383 2.08896-2.92456 2.08898-1.16983 5.43132-1.16983z" style="line-height:125%" font-size="38.90568924" font-family="sans-serif" letter-spacing="0" word-spacing="0" fill="#414141"/><g transform="translate(-628.48 -216.752) scale(2.1391)"><path d="M339.5459 240.70507v15.54272" fill="none" stroke="#414141" stroke-width="2.57437778"/><ellipse cx="339.53769" cy="240.75383" rx="1.2919613" ry=".97165215" fill="#414141"/><ellipse cx="339.54822" cy="256.27597" rx="1.2814366" ry=".92955315" fill="#414141"/></g><g transform="translate(-608.518 -216.946) scale(2.1391)"><path d="M335.1306 240.79544v15.54272" fill="none" stroke="#414141" stroke-width="2.57437778"/><ellipse cx="335.12241" cy="240.84421" rx="1.2919613" ry=".97165215" fill="#414141"/><ellipse cx="335.13293" cy="256.36633" rx="1.2814366" ry=".92955315" fill="#414141"/></g></g></svg>