<svg xmlns="http://www.w3.org/2000/svg" viewBox="0 0 533.76189 709.96829"><path fill="#004c8c" fill-rule="evenodd" d="M94.789845 60.1642l-54.19013-29.90444.85074 264.74412L270.74294 428.19844l.0442-265.75488-52.92724-29.91482 1.07614 204.18891-124.517055-72.37791z"/><path fill="none" d="M140.38277 32.24292l.12919 205.94927m-.44298-.14946l78.5929 44.99121"/><path fill="#58a5f0" fill-opacity=".9411765" fill-rule="evenodd" d="M217.85707 132.52047l53.31192-30.77459L447.52965 0 500.084 30.40948l-229.34859 132.0345z"/><path fill="#0277bd" stroke="#0277bd" stroke-width="1.2475642" stroke-dashoffset="40.9681969" d="M93.610435 264.87481l-.0757-24.31814 1.05905-102.02874-.68481-77.60034 22.721095-13.40724c11.84111-6.9872 21.98829-12.61954 21.98829-12.61954l.3378 203.81017c.20319.52938 17.77675 11.18727 39.29826 23.25029l40.46165 22.69104.46786 51.50743c-44.4109-26.02533-88.96315-50.73351-125.573505-71.28493z"/><path fill="#58a5f0" fill-opacity=".9411765" fill-rule="evenodd" d="M40.665655 30.27708l45.79071-26.46992 52.360585 30.32305-45.456545 26.53924z"/><path fill="#004c8c" d="M270.73097 162.40946L499.97472 30.41849l.0314 60.61593-184.90031 104.34159 1.27999 145.63232 183.46024-106.09578-.22451 58.91081L270.74184 428.2008z"/><path fill="#0277bd" d="M315.82963 288.4353l138.2282-80.04493 45.62109 26.41472-183.42863 106.32357z"/><path fill="#004c8c" d="M268.9956 162.71439h3.43566v264.35437h-3.43566z"/><g fill="#004c8c" style="line-height:150%;-inkscape-font-specification:Ubuntu" font-size="180" font-family="Ubuntu" letter-spacing="0" word-spacing="0"><path d="M114.48 494.96032q-6.84 19.8-13.14 36.72-6.12 16.74-12.06 31.86-5.94 15.12-11.88 28.98-5.76 13.68-11.88 27.18H49.1399996q-6.12-13.5-12.06-27.18-5.76-13.86-11.8799996-28.98-5.94-15.12-12.24-31.86-6.3-16.92-12.96-36.72h19.26q9.72 28.44 19.0799996 54.72 9.36 26.28 19.2600004 49.32 9.9-22.86 19.26-49.14 9.36-26.46 18.9-54.9h18.72zM157.834685 607.64032q5.94 0 10.44-.18 4.68-.36 7.74-1.08v-27.9q-1.8-.9-5.94-1.44-3.96-.72-9.72-.72-3.78 0-8.1.54-4.14.54-7.74 2.34-3.42 1.62-5.759998 4.68-2.34 2.88-2.34 7.74 0 9 5.759998 12.6 5.76 3.42 15.66 3.42zm-1.44-83.88q10.08 0 16.92 2.7 7.02 2.52 11.16 7.38 4.32 4.68 6.12 11.34 1.8 6.48 1.8 14.4v58.5q-2.16.36-6.12 1.08-3.78.54-8.64 1.08-4.86.54-10.62.9-5.58.54-11.16.54-7.92 0-14.58-1.62-6.659998-1.62-11.519998-5.04-4.86-3.6-7.56-9.36-2.7-5.76-2.7-13.86 0-7.74 3.06-13.32 3.24-5.58 8.64-9t12.599998-5.04q7.2-1.62 15.12-1.62 2.52 0 5.22.36 2.7.18 5.04.72 2.52.36 4.32.72 1.8.36 2.52.54v-4.68q0-4.14-.9-8.1-.9-4.14-3.24-7.2-2.34-3.24-6.48-5.04-3.96-1.98-10.44-1.98-8.28 0-14.579998 1.26-6.12 1.08-9.18 2.34l-1.98-13.86q3.24-1.44 10.8-2.7 7.559998-1.44 16.379998-1.44zM220.021875 528.80032q5.76-1.44 15.3-3.06 9.54-1.62 21.96-1.62 11.16 0 18.54 3.24 7.38 3.06 11.7 8.82 4.5 5.58 6.3 13.5 1.8 7.92 1.8 17.46v52.56h-16.74v-48.96q0-8.64-1.26-14.76-1.08-6.12-3.78-9.9-2.7-3.78-7.2-5.4-4.5-1.8-11.16-1.8-2.7 0-5.58.18t-5.58.54q-2.52.18-4.68.54-1.98.36-2.88.54v79.02h-16.74v-90.9zM340.121245 619.70032h-16.74v-93.6h16.74v93.6zm-8.46-110.52q-4.5 0-7.74-2.88-3.06-3.06-3.06-8.1 0-5.04 3.06-7.92 3.24-3.06 7.74-3.06t7.56 3.06q3.24 2.88 3.24 7.92t-3.24 8.1q-3.06 2.88-7.56 2.88zM397.164375 621.50032q-15.48-.36-21.96-6.66t-6.48-19.62v-112.32l16.74-2.88v112.5q0 4.14.72 6.84t2.34 4.32q1.62 1.62 4.32 2.52 2.7.72 6.66 1.26l-2.34 14.04zM446.383125 621.50032q-15.48-.36-21.96-6.66t-6.48-19.62v-112.32l16.74-2.88v112.5q0 4.14.72 6.84t2.34 4.32q1.62 1.62 4.32 2.52 2.7.72 6.66 1.26l-2.34 14.04zM499.201875 607.64032q5.94 0 10.44-.18 4.68-.36 7.74-1.08v-27.9q-1.8-.9-5.94-1.44-3.96-.72-9.72-.72-3.78 0-8.1.54-4.14.54-7.74 2.34-3.42 1.62-5.76 4.68-2.34 2.88-2.34 7.74 0 9 5.76 12.6 5.76 3.42 15.66 3.42zm-1.44-83.88q10.08 0 16.92 2.7 7.02 2.52 11.16 7.38 4.32 4.68 6.12 11.34 1.8 6.48 1.8 14.4v58.5q-2.16.36-6.12 1.08-3.78.54-8.64 1.08-4.86.54-10.62.9-5.58.54-11.16.54-7.92 0-14.58-1.62t-11.52-5.04q-4.86-3.6-7.56-9.36-2.7-5.76-2.7-13.86 0-7.74 3.06-13.32 3.24-5.58 8.64-9t12.6-5.04q7.2-1.62 15.12-1.62 2.52 0 5.22.36 2.7.18 5.04.72 2.52.36 4.32.72 1.8.36 2.52.54v-4.68q0-4.14-.9-8.1-.9-4.14-3.24-7.2-2.34-3.24-6.48-5.04-3.96-1.98-10.44-1.98-8.28 0-14.58 1.26-6.12 1.08-9.18 2.34l-1.98-13.86q3.24-1.44 10.8-2.7 7.56-1.44 16.38-1.44z" style="line-height:150%;-inkscape-font-specification:Ubuntu"/></g><g fill="#161616" style="line-height:125%;-inkscape-font-specification:Roboto" font-size="81.9308624" font-family="Roboto" letter-spacing="0" word-spacing="0"><path d="M200.300975 690.6857q-1.08015 9.24123-6.84091 14.28189-5.72076 5.00067-15.24202 5.00067-10.32137 0-16.5622-7.40098-6.20082-7.40098-6.20082-19.80263v-5.60074q0-8.12108 2.88038-14.28189 2.92039-6.16082 8.2411-9.44126 5.3207-3.32044 12.32163-3.32044 9.28123 0 14.88197 5.20069 5.60075 5.16069 6.52087 14.3219h-7.72103q-1.00013-6.96092-4.36057-10.08134-3.32044-3.12041-9.32124-3.12041-7.36098 0-11.56153 5.44072-4.16055 5.44072-4.16055 15.48206v5.64074q0 9.48126 3.96052 15.082 3.96053 5.60075 11.08147 5.60075 6.40085 0 9.8013-2.88039 3.44046-2.92038 4.5606-10.12134h7.72103zM207.621945 687.12523q0-6.36084 2.48033-11.44152 2.52033-5.08067 6.96092-7.84104 4.48059-2.76036 10.20135-2.76036 8.84117 0 14.28189 6.12081 5.48073 6.12081 5.48073 16.28216v.52007q0 6.32083-2.44032 11.3615-2.40032 5.00067-6.92092 7.80104-4.48059 2.80037-10.32137 2.80037-8.80116 0-14.28189-6.12081-5.44072-6.12082-5.44072-16.20215v-.52007zm7.44098.88012q0 7.20095 3.32044 11.56153 3.36045 4.36058 8.96119 4.36058 5.64075 0 8.96119-4.40059 3.32044-4.44059 3.32044-12.40164 0-7.12094-3.40045-11.52153-3.36045-4.44059-8.96119-4.44059-5.48073 0-8.84117 4.36058-3.36045 4.36058-3.36045 12.48166zM263.269325 665.88241l.20002 4.80064q4.76063-5.60074 12.84171-5.60074 9.0812 0 12.36163 6.96092 2.16029-3.12041 5.60075-5.04067 3.48046-1.92025 8.20108-1.92025 14.24189 0 14.48192 15.082v29.00384h-7.40098v-28.56379q0-4.64061-2.12028-6.92091-2.12028-2.32031-7.12094-2.32031-4.12055 0-6.84091 2.48033-2.72036 2.44032-3.16042 6.60087v28.72381h-7.44098v-28.36376q0-9.44125-9.24123-9.44125-7.28097 0-9.96132 6.20082v31.60419h-7.40098v-43.28574h7.00093zM335.118855 665.88241l.20003 4.80064q4.76063-5.60074 12.8417-5.60074 9.0812 0 12.36164 6.96092 2.16028-3.12041 5.60074-5.04067 3.48046-1.92025 8.20109-1.92025 14.24189 0 14.48192 15.082v29.00384h-7.40098v-28.56379q0-4.64061-2.12029-6.92091-2.12028-2.32031-7.12094-2.32031-4.12055 0-6.84091 2.48033-2.72036 2.44032-3.16042 6.60087v28.72381h-7.44098v-28.36376q0-9.44125-9.24123-9.44125-7.28096 0-9.96132 6.20082v31.60419h-7.40098v-43.28574h7.00093zM398.047185 687.12523q0-6.36084 2.48033-11.44152 2.52034-5.08067 6.96093-7.84104 4.48059-2.76036 10.20135-2.76036 8.84117 0 14.28189 6.12081 5.48073 6.12081 5.48073 16.28216v.52007q0 6.32083-2.44032 11.3615-2.40032 5.00067-6.92092 7.80104-4.4806 2.80037-10.32137 2.80037-8.80117 0-14.28189-6.12081-5.44073-6.12082-5.44073-16.20215v-.52007zm7.44099.88012q0 7.20095 3.32044 11.56153 3.36045 4.36058 8.96119 4.36058 5.64075 0 8.96119-4.40059 3.32044-4.44059 3.32044-12.40164 0-7.12094-3.40045-11.52153-3.36045-4.44059-8.96119-4.44059-5.48073 0-8.84117 4.36058-3.36045 4.36058-3.36045 12.48166zM453.734575 665.88241l.24003 5.44072q4.96066-6.24082 12.96172-6.24082 13.72182 0 13.84183 15.48205v28.60379h-7.40098v-28.6438q-.04-4.68062-2.16028-6.92091-2.08028-2.2403-6.52087-2.2403-3.60048 0-6.32084 1.92025-2.72036 1.92026-4.24056 5.04067v30.84409h-7.40098v-43.28574h7.00093zM517.222995 697.68663q0-3.0004-2.2803-4.64062-2.2403-1.68022-7.88104-2.88038-5.60075-1.20016-8.92119-2.88038-3.28043-1.68022-4.88064-4.00053-1.56021-2.32031-1.56021-5.52073 0-5.32071 4.48059-9.0012 4.5206-3.68048 11.52153-3.68048 7.36098 0 11.92158 3.8005 4.60061 3.8005 4.60061 9.72129h-7.44099q0-3.0404-2.60034-5.2407-2.56034-2.20029-6.48086-2.20029-4.04054 0-6.32084 1.76024-2.2803 1.76023-2.2803 4.60061 0 2.68035 2.12028 4.04053 2.12028 1.36018 7.64101 2.60035 5.56074 1.24016 9.0012 2.96039 3.44045 1.72023 5.08067 4.16055 1.68022 2.40032 1.68022 5.88078 0 5.80077-4.64061 9.32124-4.64062 3.48046-12.0416 3.48046-5.20069 0-9.20122-1.84025-4.00053-1.84024-6.28083-5.12067-2.2403-3.32045-2.2403-7.16095h7.40098q.20003 3.72049 2.9604 5.92078 2.80037 2.16029 7.36097 2.16029 4.20056 0 6.72089-1.68023 2.56034-1.72022 2.56034-4.5606z"/></g></svg>