<svg xmlns="http://www.w3.org/2000/svg" viewBox="0 0 299.86796 531.26395">
  <g transform="translate(11.114 -283.946)">
    <path fill="#d23a00" fill-rule="evenodd" stroke="#414141" stroke-width="2.139" d="M87.867 343.547l-.936 48.036-43.356 1.56s-14.348.935-14.972 15.284c-.624 14.348 2.495 212.73 2.495 212.73S32.97 638.625 43.574 638c10.606-.623 185.906-.623 185.906-.623s16.843 1.248 16.843-16.844c0-18.09-2.495-213.354-2.495-213.354s4.68-14.037-25.266-13.414c-29.944.624-31.192-.312-31.192-.312s-4.68 1.248-4.68-13.724-.622-34.31-.622-34.31z"/>
    <path fill="#b73a00" fill-rule="evenodd" d="M117.188 344.17l-.936 295.547-70.806.312s-17.156 0-17.312-23.24c-.156-23.238 0-209.767 0-209.767s4.99-13.57 18.87-13.57c13.882 0 36.184.313 36.184.313s4.68.78 4.68-4.834c0-5.615-.47-43.825-.47-43.825z"/>
    <rect width="134.242" height="57.855" x="68.899" y="286.699" fill="none" stroke="#414141" stroke-width="5.507" stroke-dashoffset="40.968" rx="18.86"/>
    <g transform="translate(-629.553 -216.946) scale(2.1391)">
      <path fill="none" stroke="#414141" stroke-width="2.574" d="M335.13 240.795v15.543"/>
      <ellipse cx="335.122" cy="240.844" fill="#414141" rx="1.292" ry=".972"/>
      <ellipse cx="335.133" cy="256.366" fill="#414141" rx="1.281" ry=".93"/>
    </g>
    <path fill="none" stroke="#414141" stroke-width="5.507" d="M87.42 344.22l.115 46.278s-.64 2.625-3.984 2.585c-3.344-.04-38.356 0-38.356 0S28.2 394.486 28.2 411.503v209.653s1.108 18.646 18.804 18.646H226.23s18.102-2.022 18.174-18.028l.934-208.474s1.825-18.58-15.795-18.778l-31.8-.356s-5.787.066-9.558.064c-1.882 0-5.204.04-5.175-4.906.052-5.44.302-44.188.302-44.188z"/>
    <path fill="#fece2f" fill-opacity=".941" fill-rule="evenodd" d="M37.75 476.444l-6.815-.05.038 73.526 55.894-.156s12.43 22.834 49.042 22.834c36.613 0 50.73-22.497 50.73-22.497l55.47-.11.597-73.65-57.612-.257s-4.856-25.178-49.186-25.676c-39.26-.44-50.29 25.806-50.29 25.806z"/>
    <path fill="#fbb62c" fill-rule="evenodd" d="M116.876 453.343V573.12s-28.822-18.725-31.504-20.274c-2.682-1.548-46.476-.31-46.476-.31L36.4 549.96l-5.46-.116.157-73.418 54.275-.624s24.954-18.404 31.504-22.46z"/>
    <g stroke="#414141" transform="matrix(1.6069 0 0 1.54057 -267.69 -152.26)">
      <path fill="none" stroke-width="3.5" stroke-dashoffset="40.968" d="M219.427 456.62a41.038 41.038 0 0 0 31.916 15.24 41.038 41.038 0 0 0 31.923-15.25"/>
      <path fill="none" stroke-width="3.5" d="M220.774 457.187H189.84m122.99.07H281.9"/>
      <ellipse cx="190.273" cy="-457.186" fill="#414141" stroke="none" rx="1.64" ry="1.805" transform="scale(1 -1)"/>
      <ellipse cx="312.835" cy="-457.256" fill="#414141" stroke="none" rx="1.291" ry="1.75" transform="scale(1 -1)"/>
    </g>
    <g stroke="#414141" transform="matrix(1.6069 0 0 -1.54057 -267.69 1178.16)">
      <path fill="none" stroke-width="3.5" stroke-dashoffset="40.968" d="M219.427 456.62a41.038 41.038 0 0 0 31.916 15.24 41.038 41.038 0 0 0 31.923-15.25"/>
      <path fill="none" stroke-width="3.5" d="M220.774 457.187H189.84m122.99.07H281.9"/>
      <ellipse cx="190.273" cy="-457.186" fill="#414141" stroke="none" rx="1.64" ry="1.805" transform="scale(1 -1)"/>
      <ellipse cx="312.835" cy="-457.256" fill="#414141" stroke="none" rx="1.291" ry="1.75" transform="scale(1 -1)"/>
    </g>
    <path fill="#414141" d="M154.098 491.674c-1.045 0-2.02.453-2.928 1.358-.907.905-1.36 1.865-1.36 2.88 0 1.26.424 2.302 1.276 3.124.88.795 1.993 1.194 3.34 1.194 1.347 0 2.434-.383 3.258-1.15.825-.796 1.238-1.84 1.238-3.128 0-1.343-.454-2.37-1.36-3.084-.908-.713-1.98-1.11-3.218-1.194h-.246zm10.144.742c-.99 0-1.857.245-2.6.74-.742.493-1.112 1.18-1.112 2.057v3.948c0 8.5.11 17.66.33 27.476.028.822.385 1.438 1.072 1.85.687.41 1.54.617 2.556.617 1.1 0 1.95-.234 2.556-.7.632-.494.95-1.014.95-1.563v-31.627c0-.878-.372-1.564-1.114-2.058-.742-.494-1.62-.74-2.638-.74zm9.65 0c-.99 0-1.858.245-2.6.74-.743.493-1.113 1.18-1.113 2.057v3.948c0 8.5.11 17.66.33 27.476.027.822.384 1.438 1.07 1.85.688.41 1.54.617 2.557.617 1.1 0 1.95-.234 2.556-.7.632-.494.95-1.014.95-1.563v-31.627c0-.878-.372-1.564-1.114-2.058-.743-.494-1.622-.74-2.64-.74zm-85.976 1.398c-1.677 0-2.75.122-3.217.37-.47.218-.84.836-1.114 1.85-.357 1.29-1.525 4.758-3.504 10.407-1.98 5.622-3.23 9.24-3.753 10.858-.14.356-.385.534-.742.534-.275 0-.483-.15-.62-.452-1.732-4.442-3.822-11.27-6.268-20.482-.22-1.288-.618-2.097-1.195-2.426-.577-.357-1.485-.535-2.722-.535h-.7c-1.1 0-1.994.192-2.68.576-.69.356-1.032.836-1.032 1.44 0 .11.028.273.083.493 1.65 4.743 3.093 9.05 4.33 12.915 1.264 3.84 2.378 7.404 3.34 10.694.962 3.263 1.486 5.018 1.568 5.265.744 2.357 1.36 3.783 1.855 4.277.523.52 1.498.78 2.928.78h1.032c.798 0 1.442-.014 1.936-.04.496 0 .95-.082 1.363-.247.412-.137.7-.247.866-.33.19-.054.383-.273.576-.657.22-.356.357-.63.412-.823.083-.22.22-.66.413-1.317.194-.685.358-1.233.496-1.644.632-1.975 1.58-4.922 2.845-8.843 1.293-3.92 2.434-7.445 3.424-10.57.99-3.154 1.854-6.047 2.597-8.68.166-.547.25-1.014.25-1.398 0-1.344-.922-2.016-2.764-2.016zm49.73 8.39c-.33 0-.77.027-1.32.082-1.788.247-3.285.713-4.495 1.398-1.18.66-1.84 1.222-1.978 1.688l-.125-.494c-.055-.247-.096-.413-.123-.495-.083-.932-1.126-1.397-3.133-1.397-1.594 0-2.612.192-3.052.576-.687.493-1.058 1.56-1.113 3.206-.082 1.536-.123 3.045-.123 4.526 0 .52.014 1.316.04 2.386.03 1.04.042 1.823.042 2.344 0 .55-.013 1.37-.04 2.468v2.467c0 1.343.013 2.357.04 3.042.083 2.112.33 3.483.74 4.114.414.603 1.392.903 2.93.903 1.32 0 2.28-.15 2.885-.45.604-.33.907-1.017.907-2.06 0-.685-.014-1.726-.04-3.124v-3.127c0-.988.026-2.495.08-4.525.083-2.77 1.183-4.92 3.3-6.456.797-.577 1.664-.865 2.6-.865 1.016 0 1.91.342 2.678 1.028.797.658 1.224 1.52 1.28 2.59.054 1.124.095 3.265.122 6.418.028 3.127.125 5.896.29 8.31.055.602.26 1.11.618 1.52.44.494 1.14.74 2.102.74.22 0 .536-.014.95-.042.41-.027.727-.04.947-.04h.29c1.566 0 2.35-.85 2.35-2.55 0-.905.014-2.26.04-4.07.056-1.81.083-3.183.083-4.115 0-3.208-.205-5.826-.618-7.855-.413-2.03-1.28-3.81-2.6-5.347-1.54-1.863-3.723-2.796-6.555-2.796zm-32.906.04c-.797 0-1.622.138-2.474.412-3.354 1.152-6.035 2.907-8.04 5.265-2.008 2.332-3.01 5.004-3.01 8.02 0 2.112.507 4.238 1.524 6.377 1.842 3.92 4.783 6.25 8.824 6.99 1.1.193 2.035.29 2.804.29 2.86 0 5.265-.92 7.217-2.757l.866-.616c.056.576.248 1.123.578 1.644.357.494.798.823 1.32.987.467.165 1.003.248 1.607.248.495 0 .936-.083 1.32-.248 1.76-.85 2.64-2.96 2.64-6.333 0-.85-.07-2.03-.207-3.537-.11-1.535-.166-2.55-.166-3.045v-9.58c0-1.153-.37-2.058-1.113-2.717-.743-.658-1.608-.987-2.598-.987-.88 0-1.65.275-2.31.824-.66.548-1.016 1.343-1.07 2.385-.084-.082-.248-.233-.496-.452-.22-.247-.385-.412-.495-.494-2.473-1.783-4.713-2.675-6.72-2.675zm87.747 0c-.798 0-1.622.138-2.474.412-3.354 1.152-6.035 2.907-8.042 5.265-2.005 2.332-3.008 5.004-3.008 8.02 0 2.112.508 4.238 1.525 6.377 1.842 3.92 4.783 6.25 8.824 6.99 1.1.193 2.035.29 2.805.29 2.86 0 5.265-.92 7.216-2.757l.868-.616c.055.576.247 1.123.577 1.644.357.494.797.823 1.32.987.467.165 1.002.248 1.607.248.495 0 .935-.083 1.32-.248 1.76-.85 2.638-2.96 2.638-6.333 0-.85-.068-2.03-.205-3.537-.11-1.535-.166-2.55-.166-3.045v-9.58c0-1.153-.372-2.058-1.114-2.717-.742-.658-1.607-.987-2.597-.987-.88 0-1.65.275-2.31.824-.66.548-1.017 1.343-1.072 2.385-.083-.082-.248-.233-.495-.452-.22-.247-.385-.412-.495-.494-2.474-1.783-4.715-2.675-6.72-2.675zm-38.143.29c-.99 0-1.84.37-2.556 1.11-.687.74-1.03 1.66-1.03 2.756v12.544c.027 1.29.04 2.262.04 2.92 0 .467-.013 1.15-.04 2.056v2.056c0 2.002 1.016 3.002 3.05 3.002h.04c1.733-.027 2.9-.246 3.506-.657.605-.438.907-1.287.907-2.55v-9.746c0-4.414-.026-7.72-.08-9.913-.056-.93-.467-1.754-1.237-2.467-.742-.74-1.61-1.11-2.6-1.11zm-48.656 6.21c1.842 0 3.423.616 4.743 1.85 1.348 1.233 2.02 2.96 2.02 5.182 0 2.14-.618 3.92-1.855 5.347-1.21 1.426-2.942 2.14-5.196 2.14-2.035 0-3.643-.63-4.825-1.892-1.155-1.288-1.73-3.056-1.73-5.305 0-2.303.672-4.1 2.02-5.388 1.346-1.288 2.954-1.933 4.823-1.933zm87.747 0c1.842 0 3.423.616 4.743 1.85 1.346 1.233 2.02 2.96 2.02 5.182 0 2.14-.62 3.92-1.856 5.347-1.21 1.426-2.942 2.14-5.196 2.14-2.035 0-3.643-.63-4.825-1.892-1.153-1.288-1.73-3.056-1.73-5.305 0-2.303.674-4.1 2.02-5.388 1.348-1.288 2.956-1.933 4.825-1.933z" style="-inkscape-font-specification:'Vanilla Extract Medium'" font-weight="500" font-family="Vanilla Extract" font-size="42.17" letter-spacing="0" word-spacing="0"/>
    <path fill="#414141" d="M287.614 794.01v3.305q-1.482-.76-3.078-1.14-1.595-.38-3.305-.38-2.602 0-3.912.798-1.292.798-1.292 2.394 0 1.215.93 1.918.932.684 3.743 1.31l1.196.267q3.723.798 5.28 2.26 1.578 1.444 1.578 4.047 0 2.962-2.356 4.69-2.336 1.73-6.44 1.73-1.71 0-3.57-.342-1.844-.323-3.896-.988v-3.61q1.938 1.008 3.82 1.52 1.88.494 3.722.494 2.47 0 3.8-.835 1.33-.856 1.33-2.395 0-1.425-.97-2.185-.95-.76-4.198-1.462l-1.216-.285q-3.248-.684-4.692-2.09-1.444-1.425-1.444-3.894 0-3.003 2.128-4.637 2.128-1.633 6.04-1.633 1.94 0 3.648.285 1.71.284 3.154.854zm-20.574 7.807v12.842h-3.495v-12.73q0-3.02-1.178-4.52-1.178-1.5-3.533-1.5-2.83 0-4.465 1.804-1.634 1.804-1.634 4.92v12.025h-3.515V793.38h3.516v3.306q1.253-1.92 2.944-2.87 1.71-.948 3.932-.948 3.667 0 5.548 2.28 1.88 2.26 1.88 6.667zm-33.225-5.984q-2.812 0-4.446 2.204-1.634 2.184-1.634 6.003 0 3.818 1.614 6.022 1.634 2.184 4.465 2.184 2.792 0 4.426-2.203 1.635-2.204 1.635-6.003 0-3.78-1.634-5.984-1.633-2.223-4.425-2.223zm0-2.963q4.56 0 7.162 2.963 2.602 2.964 2.602 8.207 0 5.224-2.604 8.206-2.602 2.964-7.16 2.964-4.58 0-7.182-2.964-2.584-2.982-2.584-8.206 0-5.243 2.584-8.207 2.602-2.963 7.18-2.963zm-29.598 4.597q1.31-2.356 3.135-3.477 1.824-1.12 4.293-1.12 3.325 0 5.13 2.336 1.804 2.318 1.804 6.61v12.843h-3.515v-12.73q0-3.057-1.083-4.54-1.083-1.48-3.306-1.48-2.716 0-4.293 1.804t-1.577 4.92v12.025h-3.514v-12.73q0-3.076-1.083-4.54-1.084-1.48-3.344-1.48-2.68 0-4.256 1.823-1.576 1.804-1.576 4.9v12.026h-3.515V793.38h3.514v3.306q1.196-1.957 2.868-2.888t3.97-.93q2.318 0 3.933 1.177 1.634 1.178 2.412 3.42zm-37.917 0q1.31-2.356 3.134-3.477 1.824-1.12 4.293-1.12 3.325 0 5.13 2.336 1.804 2.318 1.804 6.61v12.843h-3.513v-12.73q0-3.057-1.083-4.54-1.083-1.48-3.305-1.48-2.718 0-4.295 1.804-1.576 1.804-1.576 4.92v12.025h-3.516v-12.73q0-3.076-1.083-4.54-1.082-1.48-3.342-1.48-2.68 0-4.256 1.823-1.576 1.804-1.576 4.9v12.026H149.6V793.38h3.516v3.306q1.197-1.957 2.868-2.888t3.97-.93q2.318 0 3.933 1.177 1.634 1.178 2.413 3.42zm-32.105-1.634q-2.812 0-4.445 2.204-1.634 2.184-1.634 6.003 0 3.818 1.615 6.022 1.634 2.184 4.465 2.184 2.792 0 4.426-2.203 1.635-2.204 1.635-6.003 0-3.78-1.634-5.984-1.633-2.223-4.425-2.223zm0-2.963q4.56 0 7.162 2.963 2.602 2.964 2.602 8.207 0 5.224-2.603 8.206-2.603 2.964-7.162 2.964-4.578 0-7.18-2.964-2.585-2.982-2.585-8.206 0-5.243 2.584-8.207 2.603-2.963 7.18-2.963zm-14.058-4.39v4.048q-1.938-1.805-4.14-2.698-2.186-.893-4.655-.893-4.864 0-7.447 2.983-2.584 2.963-2.584 8.586 0 5.604 2.585 8.587 2.583 2.963 7.447 2.963 2.47 0 4.654-.892 2.203-.893 4.14-2.698v4.008q-2.013 1.368-4.273 2.052-2.242.684-4.75.684-6.44 0-10.144-3.932-3.705-3.952-3.705-10.772 0-6.84 3.704-10.77 3.704-3.952 10.144-3.952 2.545 0 4.787.684 2.26.664 4.237 2.013zm124.522-41.273q0 6.852 3.508 10.78 3.593 3.843 9.776 3.843 6.852 0 10.53-4.345 3.76-4.345 3.76-10.863 0-6.768-4.095-10.528-4.012-3.76-9.61-3.76-5.683 0-9.777 3.927-4.094 3.928-4.094 10.947zm41.945-.25q0 1.503.334 6.183.417 4.595.417 7.186 0 10.277-5.348 12.868-1.17.5-2.675.5-1.838 0-3.258-.5-1.588-.502-2.674-2.006-1.003-1.587-1.17-3.342l-1.755 1.253q-5.932 5.598-14.623 5.598-2.34 0-5.682-.585-12.283-2.256-17.88-14.205-3.093-6.518-3.093-12.952 0-9.19 6.1-16.294 6.1-7.186 16.294-10.695 2.59-.836 5.013-.836 6.1 0 13.62 5.433.335.25 1.003 1.002.752.67 1.003.92.167-3.176 2.172-4.847 2.006-1.67 4.68-1.67 3.008 0 5.264 2.004 2.255 2.006 2.255 5.515v19.47zm-60.08-42.114V769.1q0 1.67-1.92 3.175-1.84 1.42-5.18 1.42-3.093 0-5.182-1.253-2.09-1.254-2.172-3.76-.668-29.914-.668-55.818v-8.02q0-2.675 2.256-4.18 2.256-1.503 5.265-1.503 3.09 0 5.347 1.505 2.256 1.504 2.256 4.178zm-19.55 0V769.1q0 1.67-1.923 3.175-1.838 1.42-5.18 1.42-3.092 0-5.18-1.253-2.09-1.254-2.174-3.76-.668-29.914-.668-55.818v-8.02q0-2.675 2.256-4.18 2.256-1.503 5.264-1.503 3.092 0 5.348 1.505 2.256 1.504 2.256 4.178zm-34.93 42.197v-19.47q0-3.342 2.09-5.598 2.173-2.256 5.18-2.256 3.01 0 5.265 2.256 2.34 2.173 2.507 5.014.167 6.685.167 20.137v19.804q0 3.844-1.84 5.18-1.837 1.254-7.1 1.337h-.085q-6.184 0-6.184-6.1v-4.177q.084-2.758.084-4.178 0-2.007-.084-5.934v-6.016zm14.04-34.343q-2.508 2.34-6.602 2.34t-6.768-2.423q-2.59-2.507-2.59-6.35 0-3.092 2.757-5.85 2.757-2.757 5.932-2.757h.502q3.76.25 6.517 2.423 2.758 2.173 2.758 6.267 0 3.927-2.506 6.35zm-71.778 34.426q0-1.587-.083-4.762-.084-3.258-.084-4.846 0-4.512.25-9.19.168-5.015 2.257-6.52 1.337-1.17 6.183-1.17 6.1 0 6.35 2.842.084.25.25 1.003l.252 1.002q.418-1.42 4.01-3.426 3.677-2.09 9.11-2.84 1.67-.168 2.672-.168 8.607 0 13.286 5.682 4.01 4.68 5.264 10.862 1.254 6.184 1.254 15.96 0 2.84-.167 8.356-.083 5.515-.083 8.272 0 5.18-4.763 5.18h-.585q-.67 0-1.922.085-1.254.083-1.922.083-2.925 0-4.262-1.504-1.086-1.253-1.253-3.092-.5-7.353-.584-16.878-.084-9.61-.25-13.036-.168-3.258-2.59-5.264-2.34-2.09-5.432-2.09-2.84 0-5.265 1.756-6.435 4.68-6.685 13.12-.167 6.182-.167 9.19v6.35q.083 4.262.083 6.35 0 3.176-1.837 4.18-1.838.918-5.85.918-4.678 0-5.932-1.838-1.252-1.922-1.503-8.356-.083-2.09-.083-6.183v-5.013q.083-3.342.083-5.013zm-47.46.084q0 6.852 3.508 10.78 3.593 3.843 9.777 3.843 6.852 0 10.528-4.345 3.76-4.345 3.76-10.863 0-6.768-4.094-10.528-4.01-3.76-9.61-3.76-5.68 0-9.776 3.927-4.094 3.928-4.094 10.947zm41.945-.25q0 1.503.335 6.183.417 4.595.417 7.186 0 10.277-5.347 12.868-1.17.5-2.674.5-1.84 0-3.26-.5-1.587-.502-2.673-2.006-1.003-1.587-1.17-3.342l-1.754 1.253q-5.933 5.598-14.623 5.598-2.34 0-5.682-.585-12.282-2.256-17.88-14.205-3.092-6.518-3.092-12.952 0-9.19 6.1-16.294 6.1-7.186 16.293-10.695 2.592-.836 5.015-.836 6.1 0 13.62 5.433.334.25 1.003 1.002.752.67 1.002.92.167-3.176 2.173-4.847 2.005-1.67 4.68-1.67 3.007 0 5.263 2.004 2.256 2.006 2.256 5.515v19.47zM-3.594 702.252h1.42q3.76 0 5.515 1.086 1.756 1.002 2.425 4.93 7.436 28.074 12.7 41.61.418.92 1.254.92 1.085 0 1.503-1.086 1.588-4.93 7.604-22.06 6.016-17.213 7.102-21.14.835-3.092 2.255-3.76 1.42-.752 6.518-.752 5.598 0 5.598 4.094 0 1.17-.5 2.84-2.256 8.023-5.264 17.632-3.008 9.526-6.936 21.475-3.843 11.95-5.765 17.965-.418 1.253-1.003 3.342-.585 2.006-.835 2.674-.168.585-.836 1.67-.584 1.17-1.17 1.338-.5.25-1.754.67-1.253.5-2.757.5-1.505.084-3.928.084h-2.09q-4.344 0-5.932-1.588-1.504-1.504-3.76-8.69-.25-.752-3.175-10.696-2.925-10.027-6.768-21.725-3.76-11.782-8.774-26.237-.167-.67-.167-1.003 0-1.838 2.09-2.925 2.088-1.17 5.43-1.17z" style="line-height:125%" font-size="38.906" font-family="sans-serif" letter-spacing="0" word-spacing="0"/>
    <g transform="translate(-628.48 -216.752) scale(2.1391)">
      <path fill="none" stroke="#414141" stroke-width="2.574" d="M339.546 240.705v15.543"/>
      <ellipse cx="339.538" cy="240.754" fill="#414141" rx="1.292" ry=".972"/>
      <ellipse cx="339.548" cy="256.276" fill="#414141" rx="1.281" ry=".93"/>
    </g>
    <g transform="translate(-608.518 -216.946) scale(2.1391)">
      <path fill="none" stroke="#414141" stroke-width="2.574" d="M335.13 240.795v15.543"/>
      <ellipse cx="335.122" cy="240.844" fill="#414141" rx="1.292" ry=".972"/>
      <ellipse cx="335.133" cy="256.366" fill="#414141" rx="1.281" ry=".93"/>
    </g>
  </g>
</svg>
